{
  "accessors": [
    {
      "bufferView": 2,
      "componentType": 5126,
      "count": 5556,
      "max": [
        0.3253677487373352,
        0.230128213763237,
        0.8893239498138428
      ],
      "min": [
        -0.3253674805164337,
        -0.20497789978981018,
        -0.8875737190246582
      ],
      "type": "VEC3"
    },
    {
      "bufferView": 2,
      "byteOffset": 66672,
      "componentType": 5126,
      "count": 5556,
      "max": [
        0.9999696016311646,
        0.999980628490448,
        0.9999771118164063
      ],
      "min": [
        -0.999968409538269,
        -0.9999428391456604,
        -0.9999235272407532
      ],
      "type": "VEC3"
    },
    {
      "bufferView": 3,
      "componentType": 5126,
      "count": 5556,
      "max": [
        0.9999985694885254,
        0.9992253184318542,
        0.999487578868866,
        1.0
      ],
      "min": [
        -0.999752402305603,
        -0.9989103674888611,
        -0.9674127697944641,
        -1.0
      ],
      "type": "VEC4"
    },
    {
      "bufferView": 1,
      "componentType": 5126,
      "count": 5556,
      "max": [
        0.8859583139419556,
        0.9255351424217224
      ],
      "min": [
        0.20763236284255981,
        0.015494965016841888
      ],
      "type": "VEC2"
    },
    {
      "bufferView": 0,
      "componentType": 5125,
      "count": 30534,
      "type": "SCALAR"
    },
    {
      "bufferView": 2,
      "byteOffset": 133344,
      "componentType": 5126,
      "count": 3096,
      "max": [
        0.4445454478263855,
        0.2225540727376938,
        0.8260502815246582
      ],
      "min": [
        -0.4445454478263855,
        -0.05419807881116867,
        -0.44497260451316833
      ],
      "type": "VEC3"
    },
    {
      "bufferView": 2,
      "byteOffset": 170496,
      "componentType": 5126,
      "count": 3096,
      "max": [
        0.9998095631599426,
        0.9995027184486389,
        0.9804341197013855
      ],
      "min": [
        -0.999809741973877,
        -0.9998255372047424,
        -0.997219979763031
      ],
      "type": "VEC3"
    },
    {
      "bufferView": 3,
      "byteOffset": 88896,
      "componentType": 5126,
      "count": 3096,
      "max": [
        0.9999436736106873,
        0.99995356798172,
        0.9987662434577942,
        1.0
      ],
      "min": [
        -0.9992533326148987,
        -0.9988006949424744,
        -0.999968409538269,
        -1.0
      ],
      "type": "VEC4"
    },
    {
      "bufferView": 1,
      "byteOffset": 44448,
      "componentType": 5126,
      "count": 3096,
      "max": [
        0.9986409544944763,
        0.996163547039032
      ],
      "min": [
        0.11168309301137924,
        0.04437922686338425
      ],
      "type": "VEC2"
    },
    {
      "bufferView": 0,
      "byteOffset": 122136,
      "componentType": 5125,
      "count": 16140,
      "type": "SCALAR"
    },
    {
      "bufferView": 2,
      "byteOffset": 207648,
      "componentType": 5126,
      "count": 344,
      "max": [
        0.34129267930984497,
        0.22912320494651794,
        0.43868952989578247
      ],
      "min": [
        -0.34605732560157776,
        0.06089771166443825,
        0.3556807041168213
      ],
      "type": "VEC3"
    },
    {
      "bufferView": 2,
      "byteOffset": 211776,
      "componentType": 5126,
      "count": 344,
      "max": [
        0.9994637966156006,
        0.9590646624565125,
        0.9966995120048523
      ],
      "min": [
        -0.9996997117996216,
        -0.9540011882781982,
        -0.9871163368225098
      ],
      "type": "VEC3"
    },
    {
      "bufferView": 3,
      "byteOffset": 138432,
      "componentType": 5126,
      "count": 344,
      "max": [
        0.99150151014328,
        0.9956921339035034,
        0.9999983310699463,
        1.0
      ],
      "min": [
        -0.9782968759536743,
        -0.9959563612937927,
        -0.9179940223693848,
        1.0
      ],
      "type": "VEC4"
    },
    {
      "bufferView": 1,
      "byteOffset": 69216,
      "componentType": 5126,
      "count": 344,
      "max": [
        0.9617252945899963,
        0.9870689511299133
      ],
      "min": [
        0.21701443195343018,
        0.0063517410308122635
      ],
      "type": "VEC2"
    },
    {
      "bufferView": 0,
      "byteOffset": 186696,
      "componentType": 5125,
      "count": 840,
      "type": "SCALAR"
    },
    {
      "bufferView": 2,
      "byteOffset": 215904,
      "componentType": 5126,
      "count": 2254,
      "max": [
        0.2706785798072815,
        -0.005110910162329674,
        -0.30645254254341125
      ],
      "min": [
        -0.2706785798072815,
        -0.08034954965114594,
        -0.8008079528808594
      ],
      "type": "VEC3"
    },
    {
      "bufferView": 2,
      "byteOffset": 242952,
      "componentType": 5126,
      "count": 2254,
      "max": [
        0.9993134140968323,
        0.9977815747261047,
        0.9957457780838013
      ],
      "min": [
        -0.9993134140968323,
        -0.9998073577880859,
        -0.9994058012962341
      ],
      "type": "VEC3"
    },
    {
      "bufferView": 3,
      "byteOffset": 143936,
      "componentType": 5126,
      "count": 2254,
      "max": [
        0.9990535378456116,
        0.981461763381958,
        0.9625040292739868,
        1.0
      ],
      "min": [
        -0.9990584254264832,
        -0.9983647465705872,
        -0.9776831269264221,
        -1.0
      ],
      "type": "VEC4"
    },
    {
      "bufferView": 1,
      "byteOffset": 71968,
      "componentType": 5126,
      "count": 2254,
      "max": [
        0.7675274014472961,
        0.6003178358078003
      ],
      "min": [
        0.23456962406635284,
        0.19498783349990845
      ],
      "type": "VEC2"
    },
    {
      "bufferView": 0,
      "byteOffset": 190056,
      "componentType": 5125,
      "count": 12198,
      "type": "SCALAR"
    },
    {
      "bufferView": 2,
      "byteOffset": 270000,
      "componentType": 5126,
      "count": 976,
      "max": [
        0.42051470279693604,
        0.22059747576713562,
        0.2721445560455322
      ],
      "min": [
        -0.42051467299461365,
        -0.014292700216174126,
        -0.7944097518920898
      ],
      "type": "VEC3"
    },
    {
      "bufferView": 2,
      "byteOffset": 281712,
      "componentType": 5126,
      "count": 976,
      "max": [
        0.999215841293335,
        0.9994663000106812,
        0.9995867013931274
      ],
      "min": [
        -0.9992133975028992,
        -0.9953817129135132,
        -0.9998037815093994
      ],
      "type": "VEC3"
    },
    {
      "bufferView": 3,
      "byteOffset": 180000,
      "componentType": 5126,
      "count": 976,
      "max": [
        0.9999814629554749,
        0.9999350309371948,
        0.9195205569267273,
        1.0
      ],
      "min": [
        -0.9999813437461853,
        -0.999994158744812,
        -0.9011325240135193,
        -1.0
      ],
      "type": "VEC4"
    },
    {
      "bufferView": 1,
      "byteOffset": 90000,
      "componentType": 5126,
      "count": 976,
      "max": [
        0.9891327619552612,
        0.999251663684845
      ],
      "min": [
        0.08242437988519669,
        0.029758702963590622
      ],
      "type": "VEC2"
    },
    {
      "bufferView": 0,
      "byteOffset": 238848,
      "componentType": 5125,
      "count": 4680,
      "type": "SCALAR"
    },
    {
      "bufferView": 2,
      "byteOffset": 293424,
      "componentType": 5126,
      "count": 1890,
      "max": [
        0.461160808801651,
        0.2217266857624054,
        0.31939685344696045
      ],
      "min": [
        -0.4611615538597107,
        0.03961889073252678,
        -0.06760051101446152
      ],
      "type": "VEC3"
    },
    {
      "bufferView": 2,
      "byteOffset": 316104,
      "componentType": 5126,
      "count": 1890,
      "max": [
        0.9998827576637268,
        0.9994663000106812,
        0.9733562469482422
      ],
      "min": [
        -0.9998834729194641,
        -0.999704122543335,
        -0.999312162399292
      ],
      "type": "VEC3"
    },
    {
      "bufferView": 3,
      "byteOffset": 195616,
      "componentType": 5126,
      "count": 1890,
      "max": [
        0.9986311793327332,
        0.998164176940918,
        0.9862676858901978,
        1.0
      ],
      "min": [
        -0.9720588326454163,
        -0.9975417852401733,
        -0.9779983162879944,
        1.0
      ],
      "type": "VEC4"
    },
    {
      "bufferView": 1,
      "byteOffset": 97808,
      "componentType": 5126,
      "count": 1890,
      "max": [
        0.9684467911720276,
        0.9891080856323242
      ],
      "min": [
        0.14307095110416412,
        0.700226902961731
      ],
      "type": "VEC2"
    },
    {
      "bufferView": 0,
      "byteOffset": 257568,
      "componentType": 5125,
      "count": 10392,
      "type": "SCALAR"
    },
    {
      "bufferView": 2,
      "byteOffset": 338784,
      "componentType": 5126,
      "count": 2649,
      "max": [
        0.2857044041156769,
        0.24533286690711975,
        0.7985778450965881
      ],
      "min": [
        -0.2857045829296112,
        -0.1364356130361557,
        -0.4727243185043335
      ],
      "type": "VEC3"
    },
    {
      "bufferView": 2,
      "byteOffset": 370572,
      "componentType": 5126,
      "count": 2649,
      "max": [
        0.9997419714927673,
        0.9998279809951782,
        0.9990727305412292
      ],
      "min": [
        -0.9997432827949524,
        -0.9999707937240601,
        -0.9990573525428772
      ],
      "type": "VEC3"
    },
    {
      "bufferView": 3,
      "byteOffset": 225856,
      "componentType": 5126,
      "count": 2649,
      "max": [
        1.0,
        0.9993597865104675,
        0.997986376285553,
        1.0
      ],
      "min": [
        -1.0,
        -0.9998432397842407,
        -0.9944095611572266,
        1.0
      ],
      "type": "VEC4"
    },
    {
      "bufferView": 1,
      "byteOffset": 112928,
      "componentType": 5126,
      "count": 2649,
      "max": [
        0.971604585647583,
        0.9018537402153015
      ],
      "min": [
        0.017511319369077682,
        0.0005000000237487257
      ],
      "type": "VEC2"
    },
    {
      "bufferView": 0,
      "byteOffset": 299136,
      "componentType": 5125,
      "count": 14280,
      "type": "SCALAR"
    },
    {
      "bufferView": 2,
      "byteOffset": 402360,
      "componentType": 5126,
      "count": 514,
      "max": [
        0.0450405590236187,
        -0.01045859046280384,
        0.8157906532287598
      ],
      "min": [
        -0.04504058137536049,
        -0.026356549933552742,
        0.7842684388160706
      ],
      "type": "VEC3"
    },
    {
      "bufferView": 2,
      "byteOffset": 408528,
      "componentType": 5126,
      "count": 514,
      "max": [
        0.9952305555343628,
        -0.09752682596445084,
        0.9952290058135986
      ],
      "min": [
        -0.9952305555343628,
        -1.0,
        -0.995229959487915
      ],
      "type": "VEC3"
    },
    {
      "bufferView": 3,
      "byteOffset": 268240,
      "componentType": 5126,
      "count": 514,
      "max": [
        0.9999998807907104,
        0.9940314888954163,
        0.4651831388473511,
        1.0
      ],
      "min": [
        0.09726648032665253,
        -0.9941221475601196,
        -0.4692360758781433,
        1.0
      ],
      "type": "VEC4"
    },
    {
      "bufferView": 1,
      "byteOffset": 134120,
      "componentType": 5126,
      "count": 514,
      "max": [
        0.5303391218185425,
        0.981074333190918
      ],
      "min": [
        0.17020048201084137,
        0.9426302909851074
      ],
      "type": "VEC2"
    },
    {
      "bufferView": 0,
      "byteOffset": 356256,
      "componentType": 5125,
      "count": 2880,
      "type": "SCALAR"
    }
  ],
  "asset": {
    "extras": {
      "author": "MarcRuiz (https://sketchfab.com/MarcRuiz)",
      "license": "CC-BY-4.0 (http://creativecommons.org/licenses/by/4.0/)",
      "source": "https://sketchfab.com/3d-models/classic-mk1-sub-zero-fan-art-3860bcbcce314aa8acf6701af38a8464",
      "title": "Classic MK1 Sub-Zero fan art"
    },
    "generator": "Sketchfab-12.66.0",
    "version": "2.0"
  },
  "bufferViews": [
    {
      "buffer": 0,
      "byteLength": 367776,
      "name": "floatBufferViews",
      "target": 34963
    },
    {
      "buffer": 0,
      "byteLength": 138232,
      "byteOffset": 367776,
      "byteStride": 8,
      "name": "floatBufferViews",
      "target": 34962
    },
    {
      "buffer": 0,
      "byteLength": 414696,
      "byteOffset": 506008,
      "byteStride": 12,
      "name": "floatBufferViews",
      "target": 34962
    },
    {
      "buffer": 0,
      "byteLength": 276464,
      "byteOffset": 920704,
      "byteStride": 16,
      "name": "floatBufferViews",
      "target": 34962
    }
  ],
  "buffers": [
    {
      "byteLength": 1197168,
      "uri": "scene.bin"
    }
  ],
  "images": [
    {
      "uri": "textures/RopaNegra_baseColor.png"
    },
    {
      "uri": "textures/RopaNegra_metallicRoughness.png"
    },
    {
      "uri": "textures/RopaNegra_normal.png"
    },
    {
      "uri": "textures/Skin_baseColor.png"
    },
    {
      "uri": "textures/Skin_metallicRoughness.png"
    },
    {
      "uri": "textures/Skin_normal.png"
    },
    {
      "uri": "textures/Bandanas_baseColor.png"
    },
    {
      "uri": "textures/Bandanas_metallicRoughness.png"
    },
    {
      "uri": "textures/Bandanas_normal.png"
    },
    {
      "uri": "textures/HardBlue_baseColor.png"
    },
    {
      "uri": "textures/HardBlue_metallicRoughness.png"
    },
    {
      "uri": "textures/HardBlue_normal.png"
    },
    {
      "uri": "textures/Straps_baseColor.png"
    },
    {
      "uri": "textures/Straps_metallicRoughness.png"
    },
    {
      "uri": "textures/Straps_normal.png"
    },
    {
      "uri": "textures/MetalDark_baseColor.png"
    },
    {
      "uri": "textures/MetalDark_metallicRoughness.png"
    },
    {
      "uri": "textures/MetalDark_normal.png"
    },
    {
      "uri": "textures/Tabardo_baseColor.png"
    },
    {
      "uri": "textures/Tabardo_metallicRoughness.png"
    },
    {
      "uri": "textures/Tabardo_normal.png"
    },
    {
      "uri": "textures/Ojos_baseColor.png"
    },
    {
      "uri": "textures/Ojos_metallicRoughness.png"
    },
    {
      "uri": "textures/Ojos_emissive.png"
    },
    {
      "uri": "textures/Ojos_normal.png"
    }
  ],
  "materials": [
    {
      "doubleSided": true,
      "name": "RopaNegra",
      "normalTexture": {
        "index": 2
      },
      "occlusionTexture": {
        "index": 1
      },
      "pbrMetallicRoughness": {
        "baseColorTexture": {
          "index": 0
        },
        "metallicFactor": 0.0,
        "metallicRoughnessTexture": {
          "index": 1
        }
      }
    },
    {
      "doubleSided": true,
      "name": "Skin",
      "normalTexture": {
        "index": 5
      },
      "occlusionTexture": {
        "index": 4
      },
      "pbrMetallicRoughness": {
        "baseColorTexture": {
          "index": 3
        },
        "metallicFactor": 0.0,
        "metallicRoughnessTexture": {
          "index": 4
        }
      }
    },
    {
      "doubleSided": true,
      "name": "Bandanas",
      "normalTexture": {
        "index": 8
      },
      "occlusionTexture": {
        "index": 7
      },
      "pbrMetallicRoughness": {
        "baseColorTexture": {
          "index": 6
        },
        "metallicFactor": 0.0,
        "metallicRoughnessTexture": {
          "index": 7
        }
      }
    },
    {
      "doubleSided": true,
      "name": "HardBlue",
      "normalTexture": {
        "index": 11
      },
      "occlusionTexture": {
        "index": 10
      },
      "pbrMetallicRoughness": {
        "baseColorTexture": {
          "index": 9
        },
        "metallicFactor": 0.0,
        "metallicRoughnessTexture": {
          "index": 10
        }
      }
    },
    {
      "doubleSided": true,
      "name": "Straps",
      "normalTexture": {
        "index": 14
      },
      "occlusionTexture": {
        "index": 13
      },
      "pbrMetallicRoughness": {
        "baseColorTexture": {
          "index": 12
        },
        "metallicFactor": 0.0,
        "metallicRoughnessTexture": {
          "index": 13
        }
      }
    },
    {
      "doubleSided": true,
      "name": "MetalDark",
      "normalTexture": {
        "index": 17
      },
      "occlusionTexture": {
        "index": 16
      },
      "pbrMetallicRoughness": {
        "baseColorTexture": {
          "index": 15
        },
        "metallicRoughnessTexture": {
          "index": 16
        }
      }
    },
    {
      "doubleSided": true,
      "name": "Tabardo",
      "normalTexture": {
        "index": 20
      },
      "occlusionTexture": {
        "index": 19
      },
      "pbrMetallicRoughness": {
        "baseColorTexture": {
          "index": 18
        },
        "metallicFactor": 0.0,
        "metallicRoughnessTexture": {
          "index": 19
        }
      }
    },
    {
      "doubleSided": true,
      "emissiveFactor": [
        1.0,
        1.0,
        1.0
      ],
      "emissiveTexture": {
        "index": 23
      },
      "name": "Ojos",
      "normalTexture": {
        "index": 24
      },
      "occlusionTexture": {
        "index": 22,
        "strength": 0.4477118677911376
      },
      "pbrMetallicRoughness": {
        "baseColorTexture": {
          "index": 21
        },
        "metallicFactor": 0.0,
        "metallicRoughnessTexture": {
          "index": 22
        },
        "roughnessFactor": 0.0
      }
    }
  ],
  "meshes": [
    {
      "name": "Body_RopaNegra_0",
      "primitives": [
        {
          "attributes": {
            "NORMAL": 1,
            "POSITION": 0,
            "TANGENT": 2,
            "TEXCOORD_0": 3
          },
          "indices": 4,
          "material": 0,
          "mode": 4
        }
      ]
    },
    {
      "name": "Body_Skin_0",
      "primitives": [
        {
          "attributes": {
            "NORMAL": 6,
            "POSITION": 5,
            "TANGENT": 7,
            "TEXCOORD_0": 8
          },
          "indices": 9,
          "material": 1,
          "mode": 4
        }
      ]
    },
    {
      "name": "Body_Bandanas_0",
      "primitives": [
        {
          "attributes": {
            "NORMAL": 11,
            "POSITION": 10,
            "TANGENT": 12,
            "TEXCOORD_0": 13
          },
          "indices": 14,
          "material": 2,
          "mode": 4
        }
      ]
    },
    {
      "name": "Body_HardBlue_0",
      "primitives": [
        {
          "attributes": {
            "NORMAL": 16,
            "POSITION": 15,
            "TANGENT": 17,
            "TEXCOORD_0": 18
          },
          "indices": 19,
          "material": 3,
          "mode": 4
        }
      ]
    },
    {
      "name": "Body_Straps_0",
      "primitives": [
        {
          "attributes": {
            "NORMAL": 21,
            "POSITION": 20,
            "TANGENT": 22,
            "TEXCOORD_0": 23
          },
          "indices": 24,
          "material": 4,
          "mode": 4
        }
      ]
    },
    {
      "name": "Body_MetalDark_0",
      "primitives": [
        {
          "attributes": {
            "NORMAL": 26,
            "POSITION": 25,
            "TANGENT": 27,
            "TEXCOORD_0": 28
          },
          "indices": 29,
          "material": 5,
          "mode": 4
        }
      ]
    },
    {
      "name": "Body_Tabardo_0",
      "primitives": [
        {
          "attributes": {
            "NORMAL": 31,
            "POSITION": 30,
            "TANGENT": 32,
            "TEXCOORD_0": 33
          },
          "indices": 34,
          "material": 6,
          "mode": 4
        }
      ]
    },
    {
      "name": "Body_Ojos_0",
      "primitives": [
        {
          "attributes": {
            "NORMAL": 36,
            "POSITION": 35,
            "TANGENT": 37,
            "TEXCOORD_0": 38
          },
          "indices": 39,
          "material": 7,
          "mode": 4
        }
      ]
    }
  ],
  "nodes": [
    {
      "children": [
        1
      ],
      "matrix": [
        1.0,
        0.0,
        0.0,
        0.0,
        0.0,
        2.220446049250313e-16,
        -1.0,
        0.0,
        0.0,
        1.0,
        2.220446049250313e-16,
        0.0,
        0.0,
        0.0,
        0.0,
        1.0
      ],
      "name": "Sketchfab_model"
    },
    {
      "children": [
        2
      ],
      "matrix": [
        1.0,
        0.0,
        0.0,
        0.0,
        0.0,
        0.0,
        1.0,
        0.0,
        0.0,
        -1.0,
        0.0,
        0.0,
        0.0,
        0.0,
        0.0,
        1.0
      ],
      "name": "f70b95b0f8c147a6a52c3ae47209cb8e.fbx"
    },
    {
      "children": [
        3
      ],
      "name": "RootNode"
    },
    {
      "children": [
        4
      ],
      "matrix": [
        1.0,
        0.0,
        0.0,
        0.0,
        0.0,
        2.220446049250313e-16,
        -1.0,
        0.0,
        0.0,
        1.0,
        2.220446049250313e-16,
        0.0,
        -3.725290298461914e-07,
        0.0,
        0.0,
        1.0
      ],
      "name": "Body"
    },
    {
      "children": [
        5,
        6,
        7,
        8,
        9,
        10,
        11,
        12
      ],
      "matrix": [
        1.0,
        0.0,
        -0.0,
        0.0,
        0.0,
        1.0,
        0.0,
        0.0,
        0.0,
        0.0,
        1.0,
        0.0,
        3.725290298461914e-07,
        -0.020177483558654785,
        -0.0008751153945922852,
        1.0
      ],
      "name": "Object_4"
    },
    {
      "mesh": 0,
      "name": "Body_RopaNegra_0"
    },
    {
      "mesh": 1,
      "name": "Body_Skin_0"
    },
    {
      "mesh": 2,
      "name": "Body_Bandanas_0"
    },
    {
      "mesh": 3,
      "name": "Body_HardBlue_0"
    },
    {
      "mesh": 4,
      "name": "Body_Straps_0"
    },
    {
      "mesh": 5,
      "name": "Body_MetalDark_0"
    },
    {
      "mesh": 6,
      "name": "Body_Tabardo_0"
    },
    {
      "mesh": 7,
      "name": "Body_Ojos_0"
    }
  ],
  "samplers": [
    {
      "magFilter": 9729,
      "minFilter": 9987,
      "wrapS": 10497,
      "wrapT": 10497
    }
  ],
  "scene": 0,
  "scenes": [
    {
      "name": "Sketchfab_Scene",
      "nodes": [
        0
      ]
    }
  ],
  "textures": [
    {
      "sampler": 0,
      "source": 0
    },
    {
      "sampler": 0,
      "source": 1
    },
    {
      "sampler": 0,
      "source": 2
    },
    {
      "sampler": 0,
      "source": 3
    },
    {
      "sampler": 0,
      "source": 4
    },
    {
      "sampler": 0,
      "source": 5
    },
    {
      "sampler": 0,
      "source": 6
    },
    {
      "sampler": 0,
      "source": 7
    },
    {
      "sampler": 0,
      "source": 8
    },
    {
      "sampler": 0,
      "source": 9
    },
    {
      "sampler": 0,
      "source": 10
    },
    {
      "sampler": 0,
      "source": 11
    },
    {
      "sampler": 0,
      "source": 12
    },
    {
      "sampler": 0,
      "source": 13
    },
    {
      "sampler": 0,
      "source": 14
    },
    {
      "sampler": 0,
      "source": 15
    },
    {
      "sampler": 0,
      "source": 16
    },
    {
      "sampler": 0,
      "source": 17
    },
    {
      "sampler": 0,
      "source": 18
    },
    {
      "sampler": 0,
      "source": 19
    },
    {
      "sampler": 0,
      "source": 20
    },
    {
      "sampler": 0,
      "source": 21
    },
    {
      "sampler": 0,
      "source": 22
    },
    {
      "sampler": 0,
      "source": 23
    },
    {
      "sampler": 0,
      "source": 24
    }
  ]
}
